{"title":"Alice in Chains - Jar of Flies [EAC+FLAC]","uid":4164708,"size":204719252,"categoryP":"audio","categoryS":"flac","magnet":"?xt=urn:btih:2e4cc7981bcdfdbce50fb401623142a4adee5138&amp;dn=Alice+in+Chains+-+Jar+of+Flies+%5BEAC%2BFLAC%5D&amp;tr=udp%3A%2F%2Ftracker.openbittorrent.com%3A80&amp;tr=udp%3A%2F%2Fopen.demonii.com%3A1337&amp;tr=udp%3A%2F%2Ftracker.coppersurfer.tk%3A6969&amp;tr=udp%3A%2F%2Fexodus.desync.com%3A6969","seeders":2,"leechers":0,"uploader":"embeejay","files":10,"time":1209553708,"description":"Alice in Chains as requested... more to come\n\nExact Audio Copy V0.99 prebeta 4 from 23. January 2008\n\nEAC extraction logfile from 30. April 2008, 10:57\n\nAlice in Chains / Jar of Flies\n\nUsed drive  : PIONEER DVD-RW  DVR-115D   Adapter: 0  ID: 0\n\nRead mode               : Secure\nUtilize accurate stream : Yes\nDefeat audio cache      : Yes\nMake use of C2 pointers : No\n\nCombined read/write offset correction       : 0\nOverread into Lead-In and Lead-Out          : Yes\nFill up missing offset samples with silence : Yes\nDelete leading and trailing silent blocks   : No\nNull samples used in CRC calculations       : No\nUsed interface                              : Native Win32 interface for Win NT &amp; 2000\nGap handling                                : Not detected, thus appended to previous track\n\nUsed output format              : User Defined Encoder\nSelected bitrate                : 1024 kBit/s\nQuality                         : High\nAdd ID3 tag                     : No\nCommand line compressor         : C:Program FilesFLACflac.exe\nAdditional command line options : -8 -V -T &quot;artist=%a&quot; -T &quot;title=%t&quot; -T &quot;album=%g&quot; -T &quot;date=%y&quot; -T &quot;tracknumber=%n&quot; -T &quot;genre=%m&quot; %s\n\n\nTOC of the extracted CD\n\n     Track |   Start  |  Length  | Start sector | End sector \n    ---------------------------------------------------------\n        1  |  0:00.00 |  6:58.57 |         0    |    31406   \n        2  |  6:58.57 |  4:19.15 |     31407    |    50846   \n        3  | 11:17.72 |  4:14.30 |     50847    |    69926   \n        4  | 15:32.27 |  4:15.43 |     69927    |    89094   \n        5  | 19:47.70 |  2:37.02 |     89095    |   100871   \n        6  | 22:24.72 |  4:22.10 |    100872    |   120531   \n        7  | 26:47.07 |  4:05.28 |    120532    |   138934   \n\n\nTrack  1\n\n     Filename C:Alice in Chains - Jar of Flies 01 - Rotten Apple.wav\n\n     Peak level 99.9 %\n     Track quality 99.9 %\n     Copy CRC 8F5C42D5\n     Copy OK\n\nTrack  2\n\n     Filename C:Alice in Chains - Jar of Flies 02 - Nutshell.wav\n\n     Peak level 99.2 %\n     Track quality 100.0 %\n     Copy CRC 6C4EF3C8\n     Copy OK\n\nTrack  3\n\n     Filename C:Alice in Chains - Jar of Flies 03 - I Stay Away.wav\n\n     Peak level 100.0 %\n     Track quality 100.0 %\n     Copy CRC 50C0B848\n     Copy OK\n\nTrack  4\n\n     Filename C:Alice in Chains - Jar of Flies 04 - No Excuses.wav\n\n     Peak level 99.8 %\n     Track quality 100.0 %\n     Copy CRC 1D0A5E19\n     Copy OK\n\nTrack  5\n\n     Filename C:Alice in Chains - Jar of Flies 05 - Whale &amp; Wasp.wav\n\n     Peak level 93.6 %\n     Track quality 100.0 %\n     Copy CRC 5AC73D3D\n     Copy OK\n\nTrack  6\n\n     Filename C:Alice in Chains - Jar of Flies 06 - Don&amp;#039;t Follow.wav\n\n     Peak level 99.6 %\n     Track quality 100.0 %\n     Copy CRC 3559DB4D\n     Copy OK\n\nTrack  7\n\n     Filename C:Alice in Chains - Jar of Flies 07 - Swing on This.wav\n\n     Peak level 100.0 %\n     Track quality 99.9 %\n     Copy CRC 504E5497\n     Copy OK\n\nNo errors occurred\n\nEnd of status report\n","torrent":{"xt":"urn:btih:2e4cc7981bcdfdbce50fb401623142a4adee5138","amp;dn":"Alice+in+Chains+-+Jar+of+Flies+%5BEAC%2BFLAC%5D","amp;tr":["udp%3A%2F%2Ftracker.openbittorrent.com%3A80","udp%3A%2F%2Fopen.demonii.com%3A1337","udp%3A%2F%2Ftracker.coppersurfer.tk%3A6969","udp%3A%2F%2Fexodus.desync.com%3A6969"],"infoHash":"2e4cc7981bcdfdbce50fb401623142a4adee5138","infoHashBuffer":{"type":"Buffer","data":[46,76,199,152,27,205,253,188,229,15,180,1,98,49,66,164,173,238,81,56]},"announce":[],"urlList":[]}}